<?xml version="1.0" encoding="iso-8859-1"?>
<!-- Generator: Adobe Illustrator 19.0.0, SVG Export Plug-In . SVG Version: 6.00 Build 0)  -->
<svg version="1.1" id="Layer_1" xmlns="http://www.w3.org/2000/svg" xmlns:xlink="http://www.w3.org/1999/xlink" x="0px" y="0px"
	 viewBox="0 0 455 455" style="enable-background:new 0 0 455 455;" xml:space="preserve">
<g>
	<path d="M270.141,227.5c0-18.235-11.508-33.826-27.641-39.909v79.818C258.632,261.326,270.141,245.735,270.141,227.5z"/>
	<rect y="173.5" width="55" height="108"/>
	<path d="M184.859,227.5c0,18.235,11.508,33.826,27.641,39.909v-79.818C196.368,193.674,184.859,209.265,184.859,227.5z"/>
	<path d="M242.5,71.5v84.926c32.88,6.931,57.641,36.162,57.641,71.074s-24.76,64.143-57.641,71.074V383.5H455v-72h-85v-168h85v-72
		H242.5z"/>
	<path d="M0,143.5h85v168H0v72h212.5v-84.926c-32.88-6.931-57.641-36.162-57.641-71.074s24.76-64.143,57.641-71.074V71.5H0V143.5z"
		/>
	<rect x="400" y="173.5" width="55" height="108"/>
</g>
<g>
</g>
<g>
</g>
<g>
</g>
<g>
</g>
<g>
</g>
<g>
</g>
<g>
</g>
<g>
</g>
<g>
</g>
<g>
</g>
<g>
</g>
<g>
</g>
<g>
</g>
<g>
</g>
<g>
</g>
</svg>
